# xmcd
#
# Track frame offsets: 
#        150
#        11357
#        19567
#        31382
#        42682
#        57435
#        68872
#        79982
#        94322
#        106250
#        117610
#        128817
#        143690
#        153680
#        167175
#
# Disc length: 2361 seconds
#
# Revision: 3
# Processed by: cddbd v1.5.2PL0 Copyright (c) Steve Scherf et al.
# Submitted via: ExactAudioCopy v0.99pb3
#
DISCID=d009370f
DTITLE=Don Bibson - Country Gold
DYEAR=1995
DGENRE=Country
TTITLE0=Oh, Lonesome Me
TTITLE1=Blue, Blue Day
TTITLE2=I Can't Stop Loving You
TTITLE3=Just One Time
TTITLE4=Sweet Dreams (Of Your)
TTITLE5=Sea Of Heartbreak
TTITLE6=I Can Mend Your Broken Heart
TTITLE7=Touch Me Morning
TTITLE8=Bring Back Your Love To Me
TTITLE9=Give Myself A Party
TTITLE10=Country Green
TTITLE11=Woman (Sensuous Woman)
TTITLE12=Far Far Away
TTITLE13=One Day At A Time
TTITLE14=Lonesome Number One
EXTD=
EXTT0=
EXTT1=
EXTT2=
EXTT3=
EXTT4=
EXTT5=
EXTT6=
EXTT7=
EXTT8=
EXTT9=
EXTT10=
EXTT11=
EXTT12=
EXTT13=
EXTT14=
PLAYORDER=
